<svg id="Layer_1" data-name="Layer 1" xmlns="http://www.w3.org/2000/svg" viewBox="0 0 100 100"><defs><style>.cls-1{fill:#fff;}.cls-2{fill:none;stroke:#fff;stroke-linecap:round;stroke-linejoin:round;stroke-width:6px;}</style></defs><title>Volume Icon</title><path class="cls-1" d="M47.94,16.24a2,2,0,0,0-2,.1L19.39,34H2a2,2,0,0,0-2,2V63a2,2,0,0,0,2,2H19.39l26.5,17.66a2,2,0,0,0,2,.1A2,2,0,0,0,49,81V18A2,2,0,0,0,47.94,16.24Z"/><line class="cls-2" x1="66" y1="36" x2="93" y2="63"/><line class="cls-2" x1="93" y1="36" x2="66" y2="63"/></svg>