<svg id="Layer_1" data-name="Layer 1" xmlns="http://www.w3.org/2000/svg" viewBox="0 0 100 100"><defs><style>.cls-1{fill:#fff;}.cls-2{fill:none;stroke:#fff;stroke-linecap:round;stroke-linejoin:round;stroke-width:6px;}</style></defs><title>Volume Icon</title><path class="cls-1" d="M54.94,16.24a2,2,0,0,0-2,.1L26.39,34H9a2,2,0,0,0-2,2V63a2,2,0,0,0,2,2H26.39l26.5,17.66a2,2,0,0,0,2,.1A2,2,0,0,0,56,81V18A2,2,0,0,0,54.94,16.24Z"/><path class="cls-2" d="M68.57,32.79a22.17,22.17,0,0,1,0,31.36"/><path class="cls-2" d="M79.13,22.23a37.11,37.11,0,0,1,0,52.48"/></svg>